<svg width="19" height="18" viewBox="0 0 19 18" fill="none" xmlns="http://www.w3.org/2000/svg">
<path d="M16.9606 2.12143C16.5366 1.67298 16.0331 1.31725 15.479 1.07454C14.9249 0.831831 14.3311 0.706909 13.7313 0.706909C13.1315 0.706909 12.5376 0.831831 11.9835 1.07454C11.4294 1.31725 10.926 1.67298 10.502 2.12143L9.62204 3.05167L8.74209 2.12143C7.88563 1.21603 6.72402 0.707378 5.51281 0.707378C4.30159 0.707378 3.13998 1.21603 2.28353 2.12143C1.42707 3.02682 0.945915 4.25481 0.945915 5.53524C0.945915 6.81566 1.42707 8.04365 2.28353 8.94905L3.16348 9.87929L9.62204 16.7069L16.0806 9.87929L16.9606 8.94905C17.3848 8.50081 17.7213 7.96862 17.9509 7.38287C18.1804 6.79711 18.2986 6.16928 18.2986 5.53524C18.2986 4.90119 18.1804 4.27336 17.9509 3.68761C17.7213 3.10185 17.3848 2.56966 16.9606 2.12143V2.12143Z" stroke="#D70E36" stroke-linecap="round" stroke-linejoin="round"/>
</svg>
