<svg enable-background="new 0 0 840 720" viewBox="0 0 840 720" xmlns="http://www.w3.org/2000/svg"><path d="m746.4 92.9c-18.9-18-41.3-32.4-66-42.1-24.6-9.8-51.1-14.8-77.8-14.8s-53.2 5-77.8 14.8c-24.7 9.8-47.1 24.1-66 42.1l-39.2 37.4-39.2-37.4c-38.1-36.4-89.9-56.9-143.8-56.9s-105.7 20.5-143.8 56.9-59.6 85.9-59.6 137.4 21.4 101 59.6 137.4l39.2 37.4 287.6 274.9 287.6-274.8 39.2-37.4c18.9-18 33.9-39.5 44.1-63 10.2-23.6 15.5-48.8 15.5-74.4 0-25.5-5.3-50.8-15.5-74.4s-25.2-45-44.1-63.1z" fill="none" stroke="#7f7f7f" stroke-linecap="round" stroke-linejoin="round" stroke-width="60.3751"/></svg>