<svg enable-background="new 0 0 840 720" viewBox="0 0 840 720" xmlns="http://www.w3.org/2000/svg"><path d="m775.2 71.6c-20.5-19.6-44.9-35.2-71.7-45.8s-55.6-16.1-84.6-16.1-57.8 5.5-84.6 16.1-51.2 26.2-71.7 45.8l-42.6 40.7-42.6-40.7c-41.5-39.7-97.7-61.9-156.3-61.9s-114.9 22.3-156.3 61.9c-41.5 39.6-64.8 93.3-64.8 149.3s23.3 109.7 64.8 149.4l42.6 40.7 312.6 298.7 312.6-298.7 42.6-40.7c20.5-19.6 36.8-42.9 47.9-68.5s16.8-53.1 16.8-80.8-5.7-55.2-16.8-80.8c-11-25.8-27.3-49-47.9-68.6z" fill="#d70e36"/></svg>