<?xml version="1.0" encoding="utf-8"?>
<!-- Generator: Adobe Illustrator 25.3.1, SVG Export Plug-In . SVG Version: 6.00 Build 0)  -->
<svg version="1.1" id="Camada_1" xmlns="http://www.w3.org/2000/svg" xmlns:xlink="http://www.w3.org/1999/xlink" x="0px" y="0px"
	 viewBox="0 0 930.6 931" style="enable-background:new 0 0 930.6 931;" xml:space="preserve">
<style type="text/css">
	.st0{fill:#29241F;}
</style>
<g>
	<path class="st0" d="M465.6,83.8c124.4,0,139.1,0.5,188.1,2.7c45.5,2,70,9.6,86.4,16c21.6,8.4,37.3,18.6,53.5,34.7
		c16.4,16.4,26.4,31.8,34.7,53.5c6.4,16.4,14,41.1,16,86.4c2.2,49.1,2.7,63.8,2.7,188.1c0,124.4-0.5,139.1-2.7,188.1
		c-2,45.5-9.6,70-16,86.4c-8.4,21.6-18.5,37.3-34.7,53.5c-16.4,16.4-31.8,26.4-53.5,34.7c-16.4,6.4-41.1,14-86.4,16
		c-49.1,2.2-63.8,2.7-188.1,2.7c-124.4,0-139.1-0.5-188.1-2.7c-45.5-2-70-9.6-86.4-16c-21.6-8.4-37.3-18.6-53.5-34.7
		c-16.4-16.4-26.4-31.8-34.7-53.5c-6.4-16.4-14-41.1-16-86.4c-2.2-49.1-2.7-63.8-2.7-188.1c0-124.4,0.5-139.1,2.7-188.1
		c2-45.5,9.6-70,16-86.4c8.4-21.6,18.6-37.3,34.7-53.5c16.4-16.4,31.8-26.4,53.5-34.7c16.4-6.4,41.1-14,86.4-16
		C326.5,84.4,341.2,83.8,465.6,83.8z M465.6,0C339.2,0,323.4,0.5,273.7,2.7c-49.5,2.2-83.5,10.2-112.9,21.6
		C130,36.4,104,52.2,78.2,78.2c-26,25.8-41.8,51.8-53.8,82.4C12.9,190.2,4.9,224.1,2.7,273.5C0.5,323.4,0,339.2,0,465.6
		C0,592,0.5,607.8,2.7,657.5c2.2,49.5,10.2,83.5,21.6,112.9c12,30.7,27.8,56.7,53.8,82.6c25.8,25.8,51.8,41.8,82.4,53.7
		c29.6,11.5,63.5,19.5,112.9,21.6c49.7,2.2,65.5,2.7,191.9,2.7c126.4,0,142.2-0.5,191.9-2.7c49.5-2.2,83.5-10.2,112.9-21.6
		c30.6-11.8,56.6-27.8,82.4-53.7c25.8-25.8,41.8-51.8,53.7-82.4c11.5-29.6,19.5-63.5,21.6-112.9c2.2-49.7,2.7-65.5,2.7-191.9
		s-0.5-142.2-2.7-191.9c-2.2-49.5-10.2-83.5-21.6-112.9C894.8,130,879,104,853,78.2c-25.8-25.8-51.8-41.8-82.4-53.7
		C740.9,13.1,707.1,5.1,657.6,2.9C607.8,0.5,592,0,465.6,0z"/>
	<path class="st0" d="M465.6,226.4c-132,0-239.2,107.1-239.2,239.2c0,132,107.1,239.2,239.2,239.2c132,0,239.2-107.1,239.2-239.2
		C704.7,333.6,597.6,226.4,465.6,226.4z M465.6,620.7c-85.7,0-155.1-69.5-155.1-155.1c0-85.7,69.5-155.1,155.1-155.1
		s155.1,69.5,155.1,155.1C620.7,551.3,551.2,620.7,465.6,620.7z"/>
	<path class="st0" d="M770,217c0,30.9-25.1,55.8-55.8,55.8c-30.9,0-55.8-25.1-55.8-55.8c0-30.9,25.1-55.8,55.8-55.8
		C744.9,161.1,770,186.2,770,217z"/>
</g>
</svg>
