<svg width="22" height="26" viewBox="0 0 22 26" fill="none" xmlns="http://www.w3.org/2000/svg">
<path d="M20.5 10.75C20.5 18.3333 10.75 24.8333 10.75 24.8333C10.75 24.8333 1 18.3333 1 10.75C1 8.16414 2.02723 5.68419 3.85571 3.85571C5.68419 2.02723 8.16414 1 10.75 1C13.3359 1 15.8158 2.02723 17.6443 3.85571C19.4728 5.68419 20.5 8.16414 20.5 10.75Z" stroke="#ED2324" stroke-width="2" stroke-linecap="round" stroke-linejoin="round"/>
<path d="M10.75 14C12.5449 14 14 12.5449 14 10.75C14 8.95507 12.5449 7.5 10.75 7.5C8.95507 7.5 7.5 8.95507 7.5 10.75C7.5 12.5449 8.95507 14 10.75 14Z" stroke="#ED2324" stroke-width="2" stroke-linecap="round" stroke-linejoin="round"/>
</svg>
