<svg enable-background="new 0 0 840 960" viewBox="0 0 840 960" xmlns="http://www.w3.org/2000/svg"><g fill="none" stroke="#7f7f7f" stroke-linecap="round" stroke-linejoin="round" stroke-width="64.25"><path d="m676.5 309.3c71 0 128.5-57.5 128.5-128.5s-57.5-128.5-128.5-128.5-128.5 57.5-128.5 128.5 57.5 128.5 128.5 128.5z"/><path d="m162.5 609.2c71 0 128.5-57.5 128.5-128.5s-57.5-128.5-128.5-128.5-128.5 57.5-128.5 128.5c0 70.9 57.5 128.5 128.5 128.5z"/><path d="m676.5 909c71 0 128.5-57.5 128.5-128.5s-57.5-128.5-128.5-128.5-128.5 57.5-128.5 128.5 57.5 128.5 128.5 128.5z"/><path d="m273.4 545.3 292.6 170.5"/><path d="m565.6 245.5-292.2 170.5"/></g></svg>